<?xml version="1.0" encoding="UTF-8" standalone="no"?>
<!-- Generator: Adobe Illustrator 25.4.1, SVG Export Plug-In . SVG Version: 6.00 Build 0)  -->

<svg
   version="1.1"
   id="Layer_1"
   x="0px"
   y="0px"
   viewBox="0 0 102 38.3"
   style="enable-background:new 0 0 102 38.3;"
   xml:space="preserve"
   sodipodi:docname="logo.svg"
   inkscape:version="1.1.1 (3bf5ae0d25, 2021-09-20)"
   xmlns:inkscape="http://www.inkscape.org/namespaces/inkscape"
   xmlns:sodipodi="http://sodipodi.sourceforge.net/DTD/sodipodi-0.dtd"
   xmlns="http://www.w3.org/2000/svg"
   xmlns:svg="http://www.w3.org/2000/svg"><defs
   id="defs29" /><sodipodi:namedview
   id="namedview27"
   pagecolor="#ffffff"
   bordercolor="#666666"
   borderopacity="1.0"
   inkscape:pageshadow="2"
   inkscape:pageopacity="0.0"
   inkscape:pagecheckerboard="0"
   showgrid="false"
   inkscape:zoom="4.3778229"
   inkscape:cx="78.235235"
   inkscape:cy="54.364922"
   inkscape:window-width="1920"
   inkscape:window-height="1011"
   inkscape:window-x="0"
   inkscape:window-y="1529"
   inkscape:window-maximized="1"
   inkscape:current-layer="Layer_1" />
<style
   type="text/css"
   id="style2">
	.st0{fill:#001B30;}
	.st1{fill:#2CCBE5;}
	.st2{fill:#00D59A;}
	.st3{fill:#FF2463;}
	.st4{fill:#FFDB2C;}
</style>
<rect
   style="fill:#ffffff;stroke-width:1.00599;stroke-linecap:round;stroke-linejoin:round"
   id="rect868"
   width="101.75846"
   height="38.365459"
   x="0.23911683"
   y="0.19579765"
   ry="0" /><polygon
   class="st0"
   points="28.9,17.4 32.2,17.4 32.2,19.2 28.9,19.2 28.9,21.5 32.9,21.5 32.9,23.4 26.7,23.4 26.7,13.6 32.8,13.6 32.8,15.5 28.9,15.5 "
   id="polygon4"
   transform="matrix(0.47888851,0,0,0.47888851,25.518948,9.7320252)" />
<path
   class="st0"
   d="m 44.818155,19.070352 c -0.287333,-0.431 -0.574666,-0.814111 -0.909888,-1.197221 v 0 c 0,0.430999 0,0.909888 0,1.340887 v 1.771888 h -1.005666 v -4.740997 h 0.957777 l 1.436665,1.915555 c 0.287334,0.430999 0.574667,0.81411 0.909889,1.197221 v 0 c 0,-0.431 0,-0.909888 0,-1.340888 v -1.771888 h 1.005665 v 4.740997 H 46.25482 Z"
   id="path6"
   style="stroke-width:0.478888" />
<polygon
   class="st0"
   points="56.6,15.5 53.4,15.5 53.4,23.4 51.3,23.4 51.3,15.5 48.1,15.5 48.1,13.6 56.6,13.6 "
   id="polygon8"
   transform="matrix(0.47888851,0,0,0.47888851,25.518948,9.7320252)" />
<path
   class="st0"
   d="m 55.545257,18.30413 c 0.287334,0 0.478889,-0.04789 0.670444,-0.09578 0.191556,-0.09578 0.287333,-0.239445 0.287333,-0.478889 0,-0.239444 -0.09578,-0.383111 -0.287333,-0.478888 -0.143666,-0.09578 -0.430999,-0.143668 -0.766221,-0.143668 h -0.383111 v 1.149333 l 0.478888,0.04789 z m -1.580331,-2.059221 h 1.484554 c 0.574666,0 1.101443,0.09578 1.484554,0.335222 0.335222,0.239444 0.574666,0.574666 0.574666,1.101444 0,0.622555 -0.335222,1.101444 -0.957777,1.292999 l 1.340888,2.011332 h -1.24511 L 55.44948,19.118241 h -0.478889 v 1.867665 h -1.053554 v -4.740997 z"
   id="path10"
   style="stroke-width:0.478888" />
<path
   class="st0"
   d="m 62.728585,18.591463 c 0,-0.81411 -0.622555,-1.484555 -1.436665,-1.484555 -0.81411,0 -1.436665,0.670445 -1.436665,1.484555 0,0.814111 0.622555,1.484555 1.436665,1.484555 0.81411,0 1.436665,-0.670444 1.436665,-1.484555 m -3.878997,0 c 0,-1.388777 1.053555,-2.442332 2.442332,-2.442332 1.388776,0 2.442331,1.053555 2.442331,2.442332 0,1.388777 -1.053555,2.442332 -2.442331,2.442332 -1.388777,0 -2.442332,-1.053555 -2.442332,-2.442332"
   id="path12"
   style="stroke-width:0.478888" />
<path
   class="st0"
   d="m 66.751249,18.399908 c 0.430999,0 0.622555,0 0.81411,-0.09578 0.191555,-0.09578 0.287333,-0.287333 0.287333,-0.526777 0,-0.287333 -0.09578,-0.478888 -0.335222,-0.574667 -0.191555,-0.09578 -0.431,-0.09578 -0.81411,-0.09578 h -0.335222 v 1.293 z m -1.436666,-2.154999 h 1.388777 c 0.574666,0 1.053554,0.04789 1.388776,0.239444 0.431,0.191556 0.766222,0.622555 0.766222,1.245111 0,0.574666 -0.287333,1.005666 -0.670444,1.24511 -0.383111,0.191556 -0.81411,0.287333 -1.532443,0.287333 h -0.335222 v 1.67611 h -1.053555 z"
   id="path14"
   style="stroke-width:0.478888" />
<path
   class="st0"
   d="m 71.492245,18.830908 -1.819776,-2.585999 h 1.197221 l 0.574666,0.861999 c 0.191556,0.287334 0.383111,0.574667 0.574666,0.862 v 0 c 0.191556,-0.287333 0.383111,-0.574666 0.574667,-0.862 l 0.574666,-0.861999 h 1.149332 L 72.5458,18.830908 v 2.154998 h -1.053555 z"
   id="path16"
   style="stroke-width:0.478888" />
<path
   class="st1"
   d="m 44.339266,13.467356 c 0.862,0 1.580332,-0.718333 1.580332,-1.580332 0,-0.862 -0.718332,-1.580333 -1.580332,-1.580333 -0.861999,0 -1.580331,0.718333 -1.580331,1.580333 -0.04789,0.861999 0.670443,1.580332 1.580331,1.580332"
   id="path18"
   style="stroke-width:0.478888" />
<path
   class="st2"
   d="m 26.237281,14.042022 h 12.211657 c 1.197221,0 2.154998,-0.957777 2.154998,-2.154998 0,-1.197222 -0.957777,-2.1549988 -2.154998,-2.1549988 H 26.428836 c -0.478888,0 -0.909888,0.4309998 -0.909888,0.9098878 v 2.633888 c 0,0.430999 0.335222,0.766221 0.718333,0.766221"
   id="path20"
   style="stroke-width:0.478888" />
<path
   class="st3"
   d="m 25.518948,27.690345 v -3.495886 c 0,-0.574667 0.431,-1.005666 1.005666,-1.005666 h 14.079322 c 0.526778,0 0.670444,0.622555 0.143667,0.766221 l -14.6061,4.118442 c -0.335222,0.04789 -0.622555,-0.143667 -0.622555,-0.383111"
   id="path22"
   style="stroke-width:0.478888" />
<path
   class="st4"
   d="m 27.290835,20.698573 h 6.369218 c 0.957777,0 1.771887,-0.814111 1.771887,-1.771888 v -0.766221 c 0,-0.957778 -0.81411,-1.771888 -1.771887,-1.771888 h -6.369218 c -0.957777,0 -1.771887,0.81411 -1.771887,1.771888 v 0.766221 c 0,0.957777 0.81411,1.771888 1.771887,1.771888"
   id="path24"
   style="stroke-width:0.478888" />
</svg>
