<svg width="28" height="28" viewBox="0 0 28 28" fill="none" xmlns="http://www.w3.org/2000/svg">
<path d="M10.8023 15.49C9.40401 17.1003 9.47278 19.5989 10.9513 21.1404C11.7765 22.0057 12.8825 22.4355 13.9828 22.4355C15.0602 22.4355 16.1318 22.0229 16.9513 21.2035C17.3238 20.831 17.616 20.4012 17.8166 19.9484L23.2321 9.44987C23.3754 9.15188 23.0659 8.84242 22.7679 8.98569L12.2693 14.4012C11.7249 14.6418 11.2264 15.0086 10.8023 15.49ZM12.7163 16.9685C13.0659 16.6189 13.5244 16.4413 13.9828 16.4413C14.4413 16.4413 14.8997 16.6189 15.255 16.9685C15.9542 17.6676 15.9542 18.808 15.255 19.5072C14.9054 19.8567 14.447 20.0344 13.9828 20.0344C13.5244 20.0344 13.0659 19.8567 12.7163 19.5072C12.0115 18.8023 12.0115 17.6676 12.7163 16.9685ZM25.2264 19.5645C25.2264 17.5817 24.7049 15.6333 23.7135 13.9312C23.3295 13.2665 23.553 12.4184 24.2178 12.0344C24.8825 11.6504 25.7307 11.8739 26.1146 12.5387C27.3467 14.6648 28 17.0946 28 19.5645C28 20.3324 27.3811 20.9513 26.6132 20.9513C25.851 20.9513 25.2264 20.3324 25.2264 19.5645ZM0 19.5645C0 11.8453 6.2808 5.56448 14 5.56448C15.7937 5.56448 17.5415 5.89686 19.192 6.56162C19.9026 6.84815 20.2464 7.65044 19.9656 8.36104C19.6791 9.07165 18.8768 9.41549 18.1662 9.13468C16.8424 8.60746 15.4384 8.33812 14 8.33812C7.81089 8.33812 2.77364 13.3754 2.77364 19.5645C2.77364 20.3324 2.15473 20.9513 1.38682 20.9513C0.618911 20.9513 0 20.3324 0 19.5645Z" fill="#354D55"/>
</svg>
